# xmcd CD database file
#
# Track frame offsets:
#	150
#	19164
#	35241
#	52320
#	70602
#	85385
#	100376
#	114470
#	127999
#	154595
#	169683
#	190767
#	205258
#	226716
#
# Disc length: 3908 seconds
#
# Revision: 0
# Processed by: cddbd v1.5.1PL0 Copyright (c) Steve Scherf et al.
# Submitted via: CDex 1.51
#
DISCID=b90f420e
DTITLE=Cordal Swing - Grappelliana
DYEAR=2005
DGENRE=Jazz
TTITLE0=There wil be never another you
TTITLE1=Douce ambiance
TTITLE2=Grappelliana
TTITLE3=Tears
TTITLE4=Politos (a Lucas y Tiago)
TTITLE5=Swing 42
TTITLE6=Sweet Sue
TTITLE7=Then There Eyes
TTITLE8=Swingueando (a Ricardo Pellican)
TTITLE9=I'll see you in my dreams
TTITLE10=Sweet Georgia brown
TTITLE11=Les yeux noirs
TTITLE12=Flores negras
TTITLE13=Video
EXTD=YEAR: 2005
EXTT0=
EXTT1=
EXTT2=
EXTT3=
EXTT4=
EXTT5=
EXTT6=
EXTT7=
EXTT8=
EXTT9=
EXTT10=
EXTT11=
EXTT12=
EXTT13=
PLAYORDER=
